<?xml version="1.0" encoding="UTF-8"?>
<!DOCTYPE svg PUBLIC "-//W3C//DTD SVG 1.1//EN" "http://www.w3.org/Graphics/SVG/1.1/DTD/svg11.dtd">
<!-- Creator: CorelDRAW (OEM Version) -->
<svg xmlns="http://www.w3.org/2000/svg" xml:space="preserve" width="37.6572in" height="9.36804in" version="1.1" shape-rendering="geometricPrecision" text-rendering="geometricPrecision" image-rendering="optimizeQuality" fill-rule="evenodd" clip-rule="evenodd"
viewBox="0 0 23610.19 5873.54"
 xmlns:xlink="http://www.w3.org/1999/xlink"
 xmlns:xodm="http://www.corel.com/coreldraw/odm/2003">
 <g id="Layer_x0020_1">
  <metadata id="CorelCorpID_0Corel-Layer"/>
  <g id="_2789965843232">
   <polygon fill="#00B4FA" fill-rule="nonzero" points="-0,4920.02 -0,1585.07 1501.26,1585.07 1493.09,3025.77 1493.09,3831.89 1493.09,4668.59 "/>
   <polygon fill="#12DDFF" fill-rule="nonzero" points="760.77,5585.26 760.77,612.38 2262.03,612.38 2253.87,2760.66 2253.87,3962.7 2253.87,5210.34 "/>
   <polygon fill="#0684FF" fill-rule="nonzero" points="1594.63,5873.54 1594.63,0 5460.29,0 5460.29,1203.29 3087.72,1203.29 3087.72,2148.29 5224.67,2148.29 5224.67,3350.32 3087.72,3350.32 3087.72,5498.61 "/>
   <path fill="black" fill-rule="nonzero" d="M5938.34 4815.95l0 -2629.57 1795.02 0 0 516.39 -1159.32 0 0 539.29 1044.84 0 0 517 -1044.84 0 0 1056.89 -635.7 0zm2741.04 -2629.57l0 2629.57 -627.86 0 0 -2629.57 627.86 0zm397.69 2629.57l0 -1972.18 627.86 0 0 1972.18 -627.86 0zm314.53 -2201.75c-87.97,0 -163.9,-29.53 -227.17,-87.97 -63.27,-58.45 -95.2,-129.55 -95.2,-212.7 0,-81.95 31.94,-152.45 95.2,-210.9 63.27,-59.05 139.19,-87.97 227.17,-87.97 89.18,0 165.1,28.92 227.77,87.97 63.27,58.45 94.6,128.95 94.6,210.9 0,83.15 -31.33,154.26 -94.6,212.7 -62.67,58.45 -138.59,87.97 -227.77,87.97zm711.02 2941.09l0 -2711.52 621.84 0 0 338.04 19.28 0c25.31,-60.26 62.06,-118.1 109.66,-173.54 47,-55.44 107.86,-101.23 181.97,-136.78 74.11,-35.55 162.69,-53.03 266.33,-53.03 137.38,0 265.13,35.55 384.43,107.86 119.91,71.7 216.32,182.58 289.83,332.01 73.51,150.04 110.27,341.05 110.27,573.03 0,222.95 -34.95,410.34 -106.05,560.98 -70.5,150.64 -165.7,263.32 -285.01,338.64 -119.31,75.32 -251.87,113.28 -397.09,113.28 -99.42,0 -185.59,-16.27 -257.89,-48.81 -72.91,-32.54 -133.77,-75.32 -183.18,-128.34 -49.41,-53.02 -86.77,-110.27 -113.28,-171.12l-13.26 0 0 1059.3 -627.86 0zm615.21 -1725.13c0,106.05 14.46,198.24 42.78,277.18 28.92,78.93 70.5,139.79 124.73,182.58 54.23,43.38 119.31,65.07 195.83,65.07 77.13,0 142.21,-21.69 196.44,-65.07 53.63,-42.78 94.6,-103.64 122.32,-182.58 27.72,-78.93 42.18,-171.13 42.18,-277.18 0,-106.65 -14.46,-198.24 -42.18,-275.97 -27.72,-78.33 -68.09,-138.59 -121.72,-181.37 -53.63,-42.78 -119.31,-63.87 -197.04,-63.87 -77.13,0 -142.8,20.49 -196.43,62.67 -54.23,42.18 -95.2,101.83 -124.13,179.56 -28.32,78.33 -42.78,171.13 -42.78,278.98zm1698.01 1725.13l0 -2711.52 621.84 0 0 338.04 19.28 0c25.31,-60.26 62.06,-118.1 109.66,-173.54 47,-55.44 107.86,-101.23 181.97,-136.78 74.11,-35.55 162.69,-53.03 266.33,-53.03 137.38,0 265.13,35.55 384.43,107.86 119.91,71.7 216.32,182.58 289.83,332.01 73.51,150.04 110.27,341.05 110.27,573.03 0,222.95 -34.95,410.34 -106.05,560.98 -70.5,150.64 -165.7,263.32 -285.01,338.64 -119.31,75.32 -251.87,113.28 -397.09,113.28 -99.42,0 -185.59,-16.27 -257.89,-48.81 -72.91,-32.54 -133.77,-75.32 -183.18,-128.34 -49.41,-53.02 -86.77,-110.27 -113.28,-171.12l-13.26 0 0 1059.3 -627.86 0zm615.21 -1725.13c0,106.05 14.46,198.24 42.78,277.18 28.92,78.93 70.5,139.79 124.73,182.58 54.23,43.38 119.31,65.07 195.83,65.07 77.13,0 142.21,-21.69 196.44,-65.07 53.63,-42.78 94.6,-103.64 122.32,-182.58 27.72,-78.93 42.18,-171.13 42.18,-277.18 0,-106.65 -14.46,-198.24 -42.18,-275.97 -27.72,-78.33 -68.09,-138.59 -121.72,-181.37 -53.63,-42.78 -119.31,-63.87 -197.04,-63.87 -77.13,0 -142.8,20.49 -196.43,62.67 -54.23,42.18 -95.2,101.83 -124.13,179.56 -28.32,78.33 -42.78,171.13 -42.78,278.98zm2017.97 1725.13c-75.32,0 -146.42,-5.42 -212.71,-17.47 -66.88,-11.45 -124.13,-26.51 -172.33,-45.19l138.59 -456.13c62.06,21.09 117.5,32.54 167.51,36.15 50.01,3.62 93.4,-4.22 130.15,-23.5 36.15,-19.28 63.87,-53.63 83.76,-102.44l24.7 -59.05 -701.38 -2043.88 657.39 0 363.34 1406.98 20.49 0 368.77 -1406.98 661.01 0 -743.56 2160.78c-35.55,107.86 -86.17,203.06 -151.85,285.61 -65.68,82.55 -150.04,147.63 -253.07,194.63 -103.04,47 -230.18,70.5 -380.82,70.5zm1769.11 -739.34l0 -2629.57 1086.41 0c197.04,0 366.96,38.56 510.37,115.09 143.41,76.52 253.68,183.18 332.01,319.96 77.73,136.18 116.29,294.65 116.29,475.42 0,181.37 -39.17,339.84 -118.71,475.42 -78.93,136.18 -191.61,241.02 -338.03,315.14 -146.42,74.72 -319.96,112.08 -521.21,112.08l-670.04 0 0 -500.72 551.94 0c95.81,0 175.95,-16.87 240.42,-50.01 65.08,-33.74 113.89,-80.14 147.03,-140.4 33.74,-60.86 50.01,-130.75 50.01,-211.5 0,-81.34 -16.27,-151.84 -50.01,-210.89 -33.14,-59.65 -82.55,-106.05 -147.63,-138.59 -65.08,-31.94 -144.61,-48.21 -239.82,-48.21l-313.33 0 0 2116.79 -635.7 0zm3329.14 0l-971.93 0 0 -2629.57 970.72 0c268.14,0 498.92,52.42 692.94,157.27 193.42,104.85 343.46,255.49 448.31,451.92 105.45,196.44 157.87,431.43 157.87,704.39 0,274.16 -52.42,509.16 -157.27,706.2 -104.85,197.04 -254.28,347.68 -448.31,452.52 -194.63,104.85 -425.41,157.27 -692.34,157.27zm-336.23 -541.7l312.13 0c147.02,0 271.75,-25.31 374.19,-75.32 102.43,-50.01 179.56,-131.96 231.99,-245.24 53.02,-113.28 79.54,-264.52 79.54,-453.73 0,-189.2 -27.12,-339.84 -80.14,-452.52 -53.03,-112.68 -130.76,-194.02 -233.79,-244.04 -103.64,-50.01 -230.18,-75.32 -380.82,-75.32l-303.09 0 0 1546.17zm2004.11 541.7l0 -2629.57 1795.02 0 0 516.39 -1159.32 0 0 539.29 1044.84 0 0 517 -1044.84 0 0 1056.89 -635.7 0z"/>
  </g>
 </g>
</svg>
